<svg width="120" height="120" viewBox="0 0 120 120" fill="none" xmlns="http://www.w3.org/2000/svg">
<path opacity="0.5" d="M59.3759 112.357C84.4347 112.357 104.749 107.318 104.749 101.103C104.749 94.8871 84.4347 89.8485 59.3759 89.8485C34.3171 89.8485 14.0029 94.8871 14.0029 101.103C14.0029 107.318 34.3171 112.357 59.3759 112.357Z" fill="#B8CBCD"/>
<path d="M18.119 41.2635C17.5717 41.2635 17.0245 41.0969 16.5486 40.7876C15.24 39.9311 3.86705 32.0794 3.86705 23.1809C3.86705 22.6575 3.89084 22.1578 3.91463 21.6582C1.15466 19.3979 -0.249119 15.8289 0.0363955 11.57C0.131567 9.99968 1.51155 8.81003 3.08188 8.90521C4.65221 9.00038 5.84185 10.3804 5.74668 11.9507C5.6753 13.0214 5.74668 13.9731 5.98461 14.782C7.41218 12.4979 9.3394 11.1179 11.219 10.4755C14.3359 9.42865 17.5717 10.3804 19.4514 12.8786C21.4024 15.472 21.5213 18.3986 19.8083 20.7065C17.8335 23.3475 13.6459 24.6561 9.64871 24.085C10.4815 28.8436 17.2386 34.3398 19.7131 36.0053C21.0217 36.8856 21.3786 38.6463 20.4983 39.9549C19.951 40.8114 19.0469 41.2635 18.119 41.2635ZM10.4815 18.4699C12.599 18.7792 14.6452 18.113 15.24 17.3279C15.2876 17.2565 15.4304 17.0662 14.8831 16.3286C14.3121 15.591 13.3842 15.7813 13.0273 15.9241C12.1232 16.2096 11.1477 17.0186 10.4815 18.4699Z" fill="#783741"/>
<path d="M113.29 44.761H108.151C106.914 36.957 102.703 29.8667 96.3975 24.2278L97.2778 10.4993L85.6431 17.0186C78.077 13.2831 69.1309 11.1179 59.5423 11.1179C32.4661 11.1179 10.5291 28.2964 10.5291 49.5196C10.5291 61.3685 17.3814 71.9801 28.1596 79.0228L26.2561 83.9717C24.1862 89.3727 26.8747 95.416 32.2757 97.5098C37.6767 99.5798 43.7201 96.8912 45.8139 91.4902L47.6221 86.7792C51.429 87.5168 55.4262 87.9213 59.5423 87.9213C63.4682 87.9213 67.275 87.5406 70.9391 86.8744L72.6998 91.4902C74.7698 96.8912 80.837 99.5798 86.2379 97.5098C91.6389 95.4398 94.3275 89.3727 92.2575 83.9717L90.4731 79.3083C95.7313 75.9535 100.085 71.7421 103.202 66.9836H113.314C115.408 66.9836 117.121 65.2705 117.121 63.1767V48.5679C117.097 46.4741 115.408 44.761 113.29 44.761Z" fill="#FFBAB0"/>
<path d="M71.2723 15.2579C76.9826 15.2579 82.4788 15.8527 87.737 16.9472C79.814 12.8786 70.273 10.4993 59.9945 10.4993C32.6565 10.4993 10.5054 27.3209 10.5054 48.092C10.5054 49.4007 10.6005 50.7093 10.7671 51.9941C17.0008 30.9612 41.7216 15.2579 71.2723 15.2579Z" fill="white"/>
<g opacity="0.2">
<path d="M102.536 67.8877C89.4977 73.3125 79.0288 75.2159 60.4704 74.2642C34.9882 72.9556 14.0981 58.5133 12.5278 38.6225C11.2192 42.0724 10.5054 45.7365 10.5054 49.5196C10.5054 61.3684 17.3577 71.9801 28.1359 79.0227L26.2325 83.9717C24.1625 89.3726 26.8511 95.416 32.252 97.5098C37.653 99.5798 43.6964 96.8912 45.7902 91.4902L47.5984 86.7792C51.4053 87.5168 55.4025 87.9213 59.5187 87.9213C63.4445 87.9213 67.2513 87.5406 70.9154 86.8744L72.6761 91.4902C74.7461 96.8912 80.8133 99.5798 86.2143 97.5098C91.6152 95.4398 94.3038 89.3726 92.2338 83.9717L90.4494 79.3083C95.3745 76.1676 99.4669 72.2656 102.536 67.8877Z" fill="#783741"/>
<path d="M101.87 65.6987L113.29 66.9598C115.384 66.9598 117.097 65.2467 117.097 63.1529V59.9885H104.725C104.725 59.9885 103.702 65.0325 101.87 65.6987Z" fill="#783741"/>
</g>
<path d="M44.7671 23.8233C49.2877 22.3006 54.2842 21.4678 59.5187 21.4678C64.3962 21.4678 69.0358 22.2054 73.3185 23.514" fill="#FFBAB0"/>
<path d="M44.7668 26.6785C43.5771 26.6785 42.4589 25.9171 42.0544 24.7275C41.5547 23.2285 42.3637 21.6106 43.8389 21.111C48.764 19.4455 54.046 18.6127 59.4946 18.6127C64.4911 18.6127 69.4162 19.3503 74.1272 20.7779C75.6261 21.2299 76.4827 22.824 76.0306 24.3468C75.5785 25.8457 73.9844 26.7023 72.4617 26.2502C68.2979 24.9654 63.92 24.323 59.4946 24.323C54.6646 24.323 50.0012 25.0606 45.6471 26.5357C45.3854 26.6309 45.0761 26.6785 44.7668 26.6785Z" fill="#783741"/>
<path d="M90.925 47.6162C93.2903 47.6162 95.2078 45.6987 95.2078 43.3335C95.2078 40.9682 93.2903 39.0508 90.925 39.0508C88.5598 39.0508 86.6423 40.9682 86.6423 43.3335C86.6423 45.6987 88.5598 47.6162 90.925 47.6162Z" fill="#783741"/>
<path d="M60.9462 66.0081C55.1645 66.0081 51.6907 62.7009 51.31 62.3202L55.3548 58.2754L55.331 58.2516C55.4262 58.3468 57.52 60.2978 60.9462 60.2978C63.4444 60.2978 64.753 59.3223 64.753 57.4426C64.753 55.8009 63.2779 54.9682 59.1379 53.4454C55.4738 52.113 50.4773 50.281 50.4773 45.0703C50.4773 39.9549 54.3079 36.5049 59.9944 36.5049C64.5389 36.5049 67.8699 38.6463 68.2506 38.8842C69.5592 39.7645 69.9161 41.5252 69.0357 42.8338C68.1554 44.1424 66.3947 44.4993 65.0861 43.6428C65.0147 43.5952 62.802 42.2152 59.9944 42.2152C57.4724 42.2152 56.1876 43.1669 56.1876 45.0703C56.1876 46.2124 58.1386 46.9976 61.0889 48.092C65.0385 49.5434 70.4633 51.5182 70.4633 57.4426C70.4633 61.7015 67.513 66.0081 60.9462 66.0081Z" fill="#783741"/>
<path d="M59.9944 70.4573C59.471 70.4573 59.0427 70.0291 59.0427 69.5056V33.3405C59.0427 32.817 59.471 32.3888 59.9944 32.3888C60.5179 32.3888 60.9462 32.817 60.9462 33.3405V69.5056C60.9462 70.0291 60.5179 70.4573 59.9944 70.4573Z" fill="#783741"/>
<path d="M58.5668 88.5399C57.5199 88.5399 56.6633 87.6834 56.6633 86.6365C56.6633 85.5896 57.5199 84.733 58.5668 84.733C65.8474 84.733 72.8187 83.4482 79.2903 80.8786C80.2658 80.4979 81.3841 80.9738 81.7648 81.9493C82.1455 82.9248 81.6696 84.0431 80.6941 84.4237C73.7704 87.1599 66.347 88.5399 58.5668 88.5399Z" fill="#783741"/>
<path d="M39.0566 84.7331C38.8425 84.7331 38.6283 84.7093 38.4142 84.6141C32.8943 82.6631 27.9216 79.9745 23.5913 76.5959C22.7585 75.9535 22.6157 74.7401 23.2582 73.9311C23.9006 73.0983 25.114 72.9556 25.923 73.598C29.9202 76.7149 34.536 79.2131 39.6514 81.0214C40.6507 81.3783 41.1742 82.4489 40.8173 83.4482C40.5794 84.2334 39.8418 84.7331 39.0566 84.7331Z" fill="#783741"/>
<path d="M82.4786 101.055C76.9824 101.055 71.9859 97.6288 70.0349 92.5133L69.107 90.0626C65.895 90.5385 62.6829 90.7764 59.5423 90.7764C56.1637 90.7764 52.7851 90.5147 49.4541 89.9913L48.4786 92.5133C46.4562 97.7001 41.5787 101.055 36.0349 101.055C34.3932 101.055 32.7991 100.746 31.2526 100.175C24.4002 97.5098 20.974 89.8009 23.5913 82.9486L24.6857 80.0934C13.8362 72.2894 7.67383 61.2495 7.67383 49.5196C7.67383 38.3608 13.17 27.9157 23.1154 20.1116C32.8705 12.4741 45.8138 8.2628 59.5423 8.2628C68.7025 8.2628 77.6486 10.1662 85.5479 13.8065L95.8978 8.00108C96.8019 7.50143 97.9201 7.52522 98.8243 8.07245C99.7046 8.61969 100.228 9.61899 100.157 10.6659L99.3715 23.0382C105.082 28.4867 108.912 34.9346 110.53 41.8821H113.314C116.954 41.8821 119.952 44.8562 120 48.5203V48.5441V63.1529C120 66.817 117.002 69.8149 113.338 69.8149H104.701C101.87 73.7645 98.2057 77.381 93.9467 80.3789L94.9222 82.9248C97.5633 89.8009 94.1133 97.5098 87.2609 100.151C85.7144 100.769 84.1203 101.055 82.4786 101.055ZM70.939 84.0193C72.1049 84.0193 73.1756 84.733 73.6038 85.8513L75.3645 90.4671C76.4828 93.3936 79.3379 95.3447 82.4786 95.3447C83.4065 95.3447 84.3344 95.1781 85.2148 94.845C89.1406 93.3461 91.0916 88.9206 89.5926 84.9948L87.8082 80.3314C87.3323 79.0703 87.7844 77.6428 88.9502 76.9052C93.8516 73.7883 97.9439 69.8149 100.823 65.4132C101.346 64.6043 102.25 64.1284 103.202 64.1284H113.314C113.838 64.1284 114.266 63.7002 114.266 63.1767V48.5917C114.266 48.0445 113.814 47.6162 113.29 47.6162H108.151C106.747 47.6162 105.558 46.5931 105.32 45.2131C104.201 38.2418 100.466 31.7226 94.494 26.3692C93.8516 25.7743 93.4947 24.9416 93.5423 24.0613L94.0895 15.5672L87.0468 19.5168C86.2141 19.9689 85.2386 19.9927 84.382 19.5882C76.9586 15.9241 68.3694 13.9731 59.5423 13.9731C34.0839 13.9731 13.3841 29.9143 13.3841 49.5196C13.3841 59.9647 19.3323 69.8387 29.7298 76.6435C30.8481 77.381 31.3239 78.8086 30.8243 80.0696L28.9209 85.0186C27.4219 88.9206 29.3967 93.3461 33.2987 94.8688C34.1791 95.2019 35.0832 95.3684 36.0111 95.3684C39.1756 95.3684 41.9831 93.4412 43.1252 90.4671L44.9334 85.7561C45.4331 84.4713 46.7893 83.71 48.1455 83.9717C51.881 84.6855 55.7116 85.0661 59.5185 85.0661C63.0874 85.0661 66.7515 84.733 70.4156 84.0668C70.6059 84.043 70.7725 84.0193 70.939 84.0193Z" fill="#783741"/>
</svg>
