<svg width="260" height="71" viewBox="0 0 260 71" fill="none" xmlns="http://www.w3.org/2000/svg">
<rect width="260" height="71" fill="white"/>
<path d="M71.12 34.04C71.12 29.4267 71.9467 25.8133 73.6 23.2C75.28 20.5867 78.0533 19.28 81.92 19.28C85.7867 19.28 88.5467 20.5867 90.2 23.2C91.88 25.8133 92.72 29.4267 92.72 34.04C92.72 38.68 91.88 42.32 90.2 44.96C88.5467 47.6 85.7867 48.92 81.92 48.92C78.0533 48.92 75.28 47.6 73.6 44.96C71.9467 42.32 71.12 38.68 71.12 34.04ZM87.2 34.04C87.2 32.0667 87.0667 30.4133 86.8 29.08C86.56 27.72 86.0533 26.6133 85.28 25.76C84.5333 24.9067 83.4133 24.48 81.92 24.48C80.4267 24.48 79.2933 24.9067 78.52 25.76C77.7733 26.6133 77.2667 27.72 77 29.08C76.76 30.4133 76.64 32.0667 76.64 34.04C76.64 36.0667 76.76 37.7733 77 39.16C77.24 40.52 77.7467 41.6267 78.52 42.48C79.2933 43.3067 80.4267 43.72 81.92 43.72C83.4133 43.72 84.5467 43.3067 85.32 42.48C86.0933 41.6267 86.6 40.52 86.84 39.16C87.08 37.7733 87.2 36.0667 87.2 34.04ZM96.2994 25V19.84H105.939V49H100.179V25H96.2994ZM132.472 29.72C132.472 31.2133 132.112 32.6133 131.392 33.92C130.698 35.2267 129.592 36.28 128.072 37.08C126.578 37.88 124.685 38.28 122.392 38.28H117.712V49H112.112V21.08H122.392C124.552 21.08 126.392 21.4533 127.912 22.2C129.432 22.9467 130.565 23.9733 131.312 25.28C132.085 26.5867 132.472 28.0667 132.472 29.72ZM122.152 33.76C123.698 33.76 124.845 33.4133 125.592 32.72C126.338 32 126.712 31 126.712 29.72C126.712 27 125.192 25.64 122.152 25.64H117.712V33.76H122.152ZM142.048 21.08V49H136.448V21.08H142.048ZM167.02 29.48C166.38 28.3067 165.5 27.4133 164.38 26.8C163.26 26.1867 161.954 25.88 160.46 25.88C158.807 25.88 157.34 26.2533 156.06 27C154.78 27.7467 153.78 28.8133 153.06 30.2C152.34 31.5867 151.98 33.1867 151.98 35C151.98 36.8667 152.34 38.4933 153.06 39.88C153.807 41.2667 154.834 42.3333 156.14 43.08C157.447 43.8267 158.967 44.2 160.7 44.2C162.834 44.2 164.58 43.64 165.94 42.52C167.3 41.3733 168.194 39.7867 168.62 37.76H159.02V33.48H174.14V38.36C173.767 40.3067 172.967 42.1067 171.74 43.76C170.514 45.4133 168.927 46.7467 166.98 47.76C165.06 48.7467 162.9 49.24 160.5 49.24C157.807 49.24 155.367 48.64 153.18 47.44C151.02 46.2133 149.314 44.52 148.06 42.36C146.834 40.2 146.22 37.7467 146.22 35C146.22 32.2533 146.834 29.8 148.06 27.64C149.314 25.4533 151.02 23.76 153.18 22.56C155.367 21.3333 157.794 20.72 160.46 20.72C163.607 20.72 166.34 21.4933 168.66 23.04C170.98 24.56 172.58 26.7067 173.46 29.48H167.02ZM197.723 29.48C197.083 28.3067 196.203 27.4133 195.083 26.8C193.963 26.1867 192.657 25.88 191.163 25.88C189.51 25.88 188.043 26.2533 186.763 27C185.483 27.7467 184.483 28.8133 183.763 30.2C183.043 31.5867 182.683 33.1867 182.683 35C182.683 36.8667 183.043 38.4933 183.763 39.88C184.51 41.2667 185.537 42.3333 186.843 43.08C188.15 43.8267 189.67 44.2 191.403 44.2C193.537 44.2 195.283 43.64 196.643 42.52C198.003 41.3733 198.897 39.7867 199.323 37.76H189.723V33.48H204.843V38.36C204.47 40.3067 203.67 42.1067 202.443 43.76C201.217 45.4133 199.63 46.7467 197.683 47.76C195.763 48.7467 193.603 49.24 191.203 49.24C188.51 49.24 186.07 48.64 183.883 47.44C181.723 46.2133 180.017 44.52 178.763 42.36C177.537 40.2 176.923 37.7467 176.923 35C176.923 32.2533 177.537 29.8 178.763 27.64C180.017 25.4533 181.723 23.76 183.883 22.56C186.07 21.3333 188.497 20.72 191.163 20.72C194.31 20.72 197.043 21.4933 199.363 23.04C201.683 24.56 203.283 26.7067 204.163 29.48H197.723ZM231.187 21.08L221.747 39.28V49H216.147V39.28L206.667 21.08H212.987L218.987 33.84L224.947 21.08H231.187Z" fill="black"/>
<path opacity="0.5" d="M31.6672 62.9872C45.0319 62.9872 55.8661 60.3419 55.8661 57.0788C55.8661 53.8157 45.0319 51.1705 31.6672 51.1705C18.3025 51.1705 7.46826 53.8157 7.46826 57.0788C7.46826 60.3419 18.3025 62.9872 31.6672 62.9872Z" fill="#B8CBCD"/>
<path d="M9.66345 25.6633C9.37159 25.6633 9.07973 25.5759 8.82594 25.4135C8.12802 24.9638 2.06242 20.8417 2.06242 16.17C2.06242 15.8952 2.07511 15.6329 2.0878 15.3705C0.615818 14.1839 -0.132863 12.3102 0.019411 10.0742C0.0701691 9.24982 0.806162 8.62526 1.64367 8.67522C2.48118 8.72519 3.11566 9.44968 3.0649 10.2741C3.02683 10.8362 3.0649 11.3359 3.19179 11.7606C3.95316 10.5614 4.98102 9.83691 5.98349 9.49965C7.64582 8.95003 9.37159 9.44968 10.3741 10.7613C11.4146 12.1228 11.4781 13.6592 10.5644 14.8709C9.51118 16.2574 7.27782 16.9444 5.14598 16.6446C5.59011 19.1429 9.19394 22.0284 10.5136 22.9028C11.2116 23.3649 11.4019 24.2893 10.9324 24.9763C10.6405 25.426 10.1583 25.6633 9.66345 25.6633ZM5.59011 13.6967C6.71948 13.8591 7.81078 13.5093 8.12802 13.0971C8.1534 13.0597 8.22953 12.9597 7.93768 12.5725C7.63313 12.1853 7.13824 12.2852 6.94789 12.3601C6.46569 12.51 5.94542 12.9347 5.59011 13.6967Z" fill="#783741"/>
<path d="M60.4215 27.4995H57.6806C57.0207 23.4024 54.7747 19.68 51.412 16.7196L51.8815 9.51215L45.6763 12.9347C41.641 10.9736 36.8698 9.83692 31.7559 9.83692C17.3152 9.83692 5.61548 18.8556 5.61548 29.9978C5.61548 36.2184 9.27006 41.7895 15.0184 45.4869L14.0033 48.0851C12.8993 50.9206 14.3332 54.0934 17.2137 55.1927C20.0942 56.2794 23.3174 54.8679 24.434 52.0324L25.3984 49.5591C27.4288 49.9463 29.5606 50.1587 31.7559 50.1587C33.8497 50.1587 35.88 49.9588 37.8342 49.6091L38.7732 52.0324C39.8772 54.8679 43.113 56.2794 45.9935 55.1927C48.8741 54.1059 50.308 50.9206 49.204 48.0851L48.2523 45.6368C51.0567 43.8756 53.3788 41.6646 55.0412 39.1664H60.4342C61.5509 39.1664 62.4645 38.267 62.4645 37.1678V29.4981C62.4519 28.3989 61.5509 27.4995 60.4215 27.4995Z" fill="#FFBAB0"/>
<path d="M38.0118 12.0104C41.0573 12.0104 43.9886 12.3227 46.793 12.8973C42.5674 10.7613 37.4789 9.51215 31.997 9.51215C17.4167 9.51215 5.60278 18.3435 5.60278 29.2483C5.60278 29.9353 5.65354 30.6224 5.74237 31.2969C9.06702 20.2546 22.2514 12.0104 38.0118 12.0104Z" fill="white"/>
<g opacity="0.2">
<path d="M54.6859 39.641C47.732 42.489 42.1486 43.4883 32.2508 42.9887C18.6603 42.3017 7.5189 34.7195 6.68139 24.2768C5.98347 26.088 5.60278 28.0117 5.60278 29.9978C5.60278 36.2184 9.25737 41.7895 15.0057 45.4869L13.9906 48.0851C12.8866 50.9206 14.3205 54.0934 17.201 55.1926C20.0815 56.2794 23.3047 54.8679 24.4213 52.0324L25.3858 49.5591C27.4161 49.9463 29.5479 50.1587 31.7432 50.1587C33.837 50.1587 35.8673 49.9588 37.8215 49.6091L38.7605 52.0324C39.8645 54.8679 43.1003 56.2794 45.9809 55.1926C48.8614 54.1059 50.2953 50.9206 49.1913 48.0851L48.2396 45.6368C50.8663 43.988 53.0489 41.9394 54.6859 39.641Z" fill="#783741"/>
<path d="M54.3306 38.4919L60.4215 39.1539C61.5382 39.1539 62.4519 38.2545 62.4519 37.1553V35.494H55.8533C55.8533 35.494 55.3077 38.1421 54.3306 38.4919Z" fill="#783741"/>
</g>
<path d="M23.8757 16.5073C26.2867 15.7078 28.9515 15.2706 31.7432 15.2706C34.3446 15.2706 36.819 15.6579 39.1032 16.3449" fill="#FFBAB0"/>
<path d="M23.8758 18.0062C23.2413 18.0062 22.6449 17.6065 22.4292 16.9819C22.1627 16.195 22.5942 15.3456 23.3809 15.0832C26.0077 14.2089 28.8247 13.7717 31.7306 13.7717C34.3954 13.7717 37.0222 14.1589 39.5347 14.9084C40.3341 15.1457 40.791 15.9826 40.5499 16.7821C40.3088 17.569 39.4586 18.0187 38.6464 17.7814C36.4258 17.1068 34.0909 16.7696 31.7306 16.7696C29.1547 16.7696 26.6675 17.1568 24.3453 17.9313C24.2058 17.9812 24.0408 18.0062 23.8758 18.0062Z" fill="#783741"/>
<path d="M48.4933 28.9985C49.7548 28.9985 50.7775 27.9918 50.7775 26.7501C50.7775 25.5083 49.7548 24.5016 48.4933 24.5016C47.2319 24.5016 46.2092 25.5083 46.2092 26.7501C46.2092 27.9918 47.2319 28.9985 48.4933 28.9985Z" fill="#783741"/>
<path d="M32.5045 38.6542C29.421 38.6542 27.5683 36.9179 27.3653 36.718L29.5225 34.5945L29.5098 34.582C29.5606 34.632 30.6772 35.6563 32.5045 35.6563C33.8369 35.6563 34.5349 35.1441 34.5349 34.1573C34.5349 33.2954 33.7481 32.8583 31.5401 32.0588C29.5859 31.3593 26.9211 30.3975 26.9211 27.6619C26.9211 24.9763 28.9642 23.165 31.997 23.165C34.4207 23.165 36.1972 24.2893 36.4002 24.4142C37.0981 24.8763 37.2885 25.8007 36.819 26.4877C36.3495 27.1747 35.4104 27.3621 34.7125 26.9124C34.6744 26.8874 33.4943 26.1629 31.997 26.1629C30.6519 26.1629 29.9666 26.6626 29.9666 27.6619C29.9666 28.2615 31.0072 28.6737 32.5807 29.2483C34.6871 30.0102 37.5803 31.047 37.5803 34.1573C37.5803 36.3933 36.0068 38.6542 32.5045 38.6542Z" fill="#783741"/>
<path d="M31.9971 40.9901C31.7179 40.9901 31.4895 40.7652 31.4895 40.4904V21.5037C31.4895 21.2289 31.7179 21.0041 31.9971 21.0041C32.2763 21.0041 32.5047 21.2289 32.5047 21.5037V40.4904C32.5047 40.7652 32.2763 40.9901 31.9971 40.9901Z" fill="#783741"/>
<path d="M31.2356 50.4834C30.6773 50.4834 30.2205 50.0337 30.2205 49.4841C30.2205 48.9345 30.6773 48.4848 31.2356 48.4848C35.1186 48.4848 38.8366 47.8103 42.2882 46.4612C42.8085 46.2614 43.4049 46.5112 43.6079 47.0233C43.8109 47.5355 43.5572 48.1226 43.0369 48.3224C39.3442 49.7589 35.3851 50.4834 31.2356 50.4834Z" fill="#783741"/>
<path d="M20.8304 48.4848C20.7162 48.4848 20.602 48.4723 20.4878 48.4224C17.5438 47.3981 14.8917 45.9866 12.5822 44.2128C12.138 43.8756 12.0619 43.2385 12.4045 42.8138C12.7471 42.3766 13.3943 42.3017 13.8258 42.6389C15.9576 44.2753 18.4194 45.5869 21.1476 46.5362C21.6806 46.7236 21.9597 47.2857 21.7694 47.8103C21.6425 48.2225 21.2491 48.4848 20.8304 48.4848Z" fill="#783741"/>
<path d="M43.9886 57.0538C41.0574 57.0538 38.3926 55.2551 37.352 52.5695L36.8571 51.2829C35.144 51.5327 33.431 51.6576 31.7559 51.6576C29.954 51.6576 28.1521 51.5202 26.3756 51.2454L25.8553 52.5695C24.7767 55.2926 22.1753 57.0538 19.2187 57.0538C18.3431 57.0538 17.4929 56.8914 16.6681 56.5917C13.0135 55.1926 11.1862 51.1455 12.5821 47.548L13.1658 46.049C7.37936 41.9519 4.09277 36.156 4.09277 29.9978C4.09277 24.1394 7.02405 18.6557 12.3283 14.5586C17.531 10.5489 24.4341 8.33795 31.7559 8.33795C36.6414 8.33795 41.4127 9.33725 45.6256 11.2484L51.1455 8.20055C51.6277 7.93823 52.2241 7.95073 52.7063 8.23802C53.1759 8.52532 53.455 9.04996 53.417 9.59957L52.9982 16.095C56.0437 18.9555 58.0867 22.3406 58.9496 25.9881H60.4343C62.3758 25.9881 63.9746 27.5495 64 29.4732V29.4856V37.1553C64 39.0789 62.4011 40.6528 60.447 40.6528H55.8407C54.3306 42.7264 52.3764 44.625 50.105 46.1989L50.6253 47.5355C52.0338 51.1455 50.1938 55.1926 46.5392 56.5792C45.7144 56.9039 44.8642 57.0538 43.9886 57.0538ZM37.8342 48.1101C38.456 48.1101 39.027 48.4848 39.2554 49.0719L40.1945 51.4952C40.7909 53.0317 42.3136 54.0559 43.9886 54.0559C44.4835 54.0559 44.9784 53.9685 45.4479 53.7936C47.5417 53.0067 48.5823 50.6833 47.7828 48.6222L46.8311 46.174C46.5773 45.5119 46.8184 44.7624 47.4402 44.3752C50.0542 42.7389 52.2368 40.6528 53.7723 38.3419C54.0514 37.9172 54.5336 37.6674 55.0412 37.6674H60.4343C60.7134 37.6674 60.9418 37.4426 60.9418 37.1678V29.5106C60.9418 29.2233 60.7007 28.9985 60.4216 28.9985H57.6806C56.932 28.9985 56.2975 28.4614 56.1706 27.7369C55.5742 24.0769 53.5819 20.6543 50.3969 17.8438C50.0542 17.5315 49.8639 17.0943 49.8893 16.6321L50.1811 12.1728L46.425 14.2463C45.9809 14.4837 45.4606 14.4961 45.0038 14.2838C41.0447 12.3601 36.4638 11.3359 31.7559 11.3359C18.1781 11.3359 7.13826 19.705 7.13826 29.9978C7.13826 35.4814 10.3106 40.6653 15.856 44.2378C16.4524 44.625 16.7062 45.3745 16.4397 46.0366L15.4245 48.6347C14.6251 50.6833 15.6783 53.0067 17.7594 53.8061C18.2289 53.981 18.7111 54.0684 19.206 54.0684C20.8937 54.0684 22.3911 53.0566 23.0002 51.4952L23.9646 49.022C24.2311 48.3474 24.9544 47.9477 25.6777 48.0851C27.6699 48.4599 29.7129 48.6597 31.7432 48.6597C33.6467 48.6597 35.6009 48.4848 37.5551 48.1351C37.6566 48.1226 37.7454 48.1101 37.8342 48.1101Z" fill="#783741"/>
</svg>
